<?xml version="1.0" encoding="utf-8"?>
<!-- Generator: Adobe Illustrator 24.0.2, SVG Export Plug-In . SVG Version: 6.00 Build 0)  -->
<svg version="1.1" id="Calque_1" xmlns="http://www.w3.org/2000/svg" xmlns:xlink="http://www.w3.org/1999/xlink" x="0px" y="0px"
	 viewBox="0 0 1000 1000" style="enable-background:new 0 0 1000 1000;" xml:space="preserve">
<style type="text/css">
	.st0{fill:none;stroke:#2F4798;stroke-width:19;stroke-linecap:round;stroke-linejoin:round;stroke-miterlimit:10;}
</style>
<polyline class="st0" points="0,402.63 202.64,402.63 202.64,304.91 0,304.91 0,0 1000,0 1000,300.38 798.73,298.43 796.78,403.97 
	1000,403.97 "/>
<polyline class="st0" points="0,499.02 202.64,499.02 202.64,596.74 0,596.74 0,999.38 1000,999.38 1000,602.96 798.73,604.92 
	796.78,499.38 1000,499.38 "/>
<line class="st0" x1="500" y1="0" x2="500" y2="102.01"/>
<line class="st0" x1="97.1" y1="102.01" x2="198.73" y2="102.01"/>
<line class="st0" x1="298.4" y1="102.01" x2="400.03" y2="102.01"/>
<line class="st0" x1="599.38" y1="102.01" x2="699.06" y2="102.01"/>
<line class="st0" x1="798.73" y1="102.01" x2="898.41" y2="102.01"/>
<polyline class="st0" points="298.4,206.38 298.4,304.69 298.4,402.99 "/>
<line class="st0" x1="400.03" y1="304.69" x2="298.4" y2="304.69"/>
<line class="st0" x1="97.1" y1="193.87" x2="198.73" y2="193.87"/>
<line class="st0" x1="798.73" y1="193.87" x2="898.41" y2="193.87"/>
<line class="st0" x1="699.06" y1="193.87" x2="699.06" y2="402.99"/>
<line class="st0" x1="599.38" y1="298.43" x2="699.06" y2="298.43"/>
<line class="st0" x1="400.03" y1="193.87" x2="599.38" y2="193.87"/>
<line class="st0" x1="499.71" y1="298.43" x2="500" y2="193.87"/>
<line class="st0" x1="400.03" y1="604.29" x2="599.38" y2="604.29"/>
<line class="st0" x1="499.71" y1="708.85" x2="500" y2="604.29"/>
<line class="st0" x1="400.03" y1="799.76" x2="599.38" y2="799.76"/>
<line class="st0" x1="499.71" y1="904.32" x2="500" y2="799.76"/>
<line class="st0" x1="398.76" y1="904.32" x2="97.1" y2="904.32"/>
<line class="st0" x1="299.09" y1="799.76" x2="298.8" y2="904.32"/>
<line class="st0" x1="898.41" y1="904.32" x2="599.56" y2="904.32"/>
<line class="st0" x1="699.23" y1="799.76" x2="698.94" y2="904.32"/>
<polygon class="st0" points="400.03,402.99 462.57,402.99 599.38,402.99 599.38,500 400.03,500 "/>
<line class="st0" x1="298.4" y1="500" x2="298.4" y2="604.29"/>
<line class="st0" x1="699.06" y1="500" x2="699.06" y2="604.29"/>
<line class="st0" x1="97.1" y1="799.76" x2="0" y2="799.76"/>
<line class="st0" x1="898.41" y1="799.76" x2="1000" y2="799.76"/>
<polyline class="st0" points="898.41,696.15 798.73,696.15 798.73,799.76 "/>
<line class="st0" x1="599.38" y1="696.15" x2="698.94" y2="696.15"/>
<polyline class="st0" points="97.1,696.15 198.73,696.15 198.73,799.76 "/>
<line class="st0" x1="299.09" y1="696.15" x2="400.03" y2="696.15"/>
</svg>
