<?xml version="1.0" encoding="utf-8"?>
<!-- Generator: Adobe Illustrator 24.0.2, SVG Export Plug-In . SVG Version: 6.00 Build 0)  -->
<svg version="1.1" id="Calque_1" xmlns="http://www.w3.org/2000/svg" xmlns:xlink="http://www.w3.org/1999/xlink" x="0px" y="0px"
	 viewBox="0 0 1000 1000" style="enable-background:new 0 0 1000 1000;" xml:space="preserve">
<style type="text/css">
	.st0{fill:none;stroke:#1F14F0;stroke-width:19;stroke-linecap:round;stroke-linejoin:round;stroke-miterlimit:10;}
</style>
<polyline class="st0" points="0,402.6 202.6,402.6 202.6,304.9 0,304.9 0,0 1000,0 1000,300.4 798.7,298.4 796.8,404 1000,404 "/>
<polyline class="st0" points="0,499 202.6,499 202.6,596.7 0,596.7 0,999.4 1000,999.4 1000,603 798.7,604.9 796.8,499.4 
	1000,499.4 "/>
<line class="st0" x1="500" y1="0" x2="500" y2="102"/>
<line class="st0" x1="97.1" y1="102" x2="198.7" y2="102"/>
<line class="st0" x1="298.4" y1="102" x2="400" y2="102"/>
<line class="st0" x1="599.4" y1="102" x2="699.1" y2="102"/>
<line class="st0" x1="798.7" y1="102" x2="898.4" y2="102"/>
<polyline class="st0" points="298.4,206.4 298.4,304.7 298.4,403 "/>
<line class="st0" x1="400" y1="304.7" x2="298.4" y2="304.7"/>
<line class="st0" x1="97.1" y1="193.9" x2="198.7" y2="193.9"/>
<line class="st0" x1="798.7" y1="193.9" x2="898.4" y2="193.9"/>
<line class="st0" x1="699.1" y1="193.9" x2="699.1" y2="403"/>
<line class="st0" x1="599.4" y1="298.4" x2="699.1" y2="298.4"/>
<line class="st0" x1="400" y1="193.9" x2="599.4" y2="193.9"/>
<line class="st0" x1="499.7" y1="298.4" x2="500" y2="193.9"/>
<line class="st0" x1="400" y1="604.3" x2="599.4" y2="604.3"/>
<line class="st0" x1="499.7" y1="708.8" x2="500" y2="604.3"/>
<line class="st0" x1="400" y1="799.8" x2="599.4" y2="799.8"/>
<line class="st0" x1="499.7" y1="904.3" x2="500" y2="799.8"/>
<line class="st0" x1="398.8" y1="904.3" x2="97.1" y2="904.3"/>
<line class="st0" x1="299.1" y1="799.8" x2="298.8" y2="904.3"/>
<line class="st0" x1="898.4" y1="904.3" x2="599.6" y2="904.3"/>
<line class="st0" x1="699.2" y1="799.8" x2="698.9" y2="904.3"/>
<polygon class="st0" points="400,403 462.6,403 599.4,403 599.4,500 400,500 "/>
<line class="st0" x1="298.4" y1="500" x2="298.4" y2="604.3"/>
<line class="st0" x1="699.1" y1="500" x2="699.1" y2="604.3"/>
<line class="st0" x1="97.1" y1="799.8" x2="0" y2="799.8"/>
<line class="st0" x1="898.4" y1="799.8" x2="1000" y2="799.8"/>
<polyline class="st0" points="898.4,696.2 798.7,696.2 798.7,799.8 "/>
<line class="st0" x1="599.4" y1="696.2" x2="698.9" y2="696.2"/>
<polyline class="st0" points="97.1,696.2 198.7,696.2 198.7,799.8 "/>
<line class="st0" x1="299.1" y1="696.2" x2="400" y2="696.2"/>
</svg>
